<?xml version="1.0" standalone="no"?>
<!DOCTYPE svg PUBLIC "-//W3C//DTD SVG 20010904//EN"
 "http://www.w3.org/TR/2001/REC-SVG-20010904/DTD/svg10.dtd">
<svg version="1.0" xmlns="http://www.w3.org/2000/svg"
 width="732.000000pt" height="732.000000pt" viewBox="0 0 732.000000 732.000000"
 preserveAspectRatio="xMidYMid meet">
<metadata>
Created by potrace 1.11, written by Peter Selinger 2001-2013
</metadata>
<g transform="translate(0.000000,732.000000) scale(0.100000,-0.100000)"
fill="#000000" stroke="none">
<path d="M3428 7315 c-2 -1 -43 -6 -93 -9 -49 -4 -99 -9 -110 -11 -11 -2 -40
-7 -65 -10 -69 -9 -103 -14 -130 -20 -14 -3 -50 -9 -80 -15 -30 -6 -65 -12
-77 -15 -13 -3 -32 -7 -44 -10 -11 -2 -29 -7 -39 -10 -10 -3 -27 -8 -38 -10
-10 -2 -52 -13 -92 -25 -40 -12 -80 -23 -89 -25 -25 -5 -193 -65 -230 -82 -18
-8 -39 -16 -45 -18 -6 -1 -33 -12 -59 -23 -27 -12 -51 -22 -53 -22 -28 0 -492
-253 -514 -280 -3 -4 -12 -9 -20 -12 -22 -8 -253 -178 -267 -197 -7 -9 -13
-13 -13 -8 0 4 -8 -1 -19 -10 -10 -10 -44 -40 -76 -68 -32 -27 -68 -59 -80
-70 -11 -11 -39 -37 -62 -57 -23 -20 -39 -39 -35 -42 3 -3 1 -6 -5 -6 -18 0
-191 -187 -275 -295 -12 -16 -31 -39 -41 -50 -11 -11 -31 -38 -45 -60 -14 -22
-28 -42 -32 -45 -19 -12 -192 -284 -243 -380 -16 -30 -38 -70 -49 -87 -11 -18
-16 -33 -11 -33 4 0 3 -4 -2 -8 -13 -8 -66 -120 -103 -212 -14 -36 -28 -69
-32 -75 -4 -5 -15 -35 -25 -65 -10 -30 -23 -61 -29 -69 -6 -8 -10 -16 -8 -18
2 -2 -8 -38 -21 -81 -49 -154 -98 -345 -112 -436 -3 -21 -7 -41 -9 -45 -2 -3
-6 -30 -10 -59 -6 -52 -13 -104 -21 -151 -19 -115 -27 -606 -12 -749 9 -88 17
-152 22 -187 3 -16 7 -48 10 -70 3 -22 10 -60 15 -85 5 -25 12 -57 15 -72 11
-62 17 -87 41 -178 14 -52 26 -99 28 -105 1 -5 8 -30 15 -55 19 -66 99 -287
127 -348 13 -29 24 -55 24 -58 0 -12 141 -287 186 -363 86 -144 120 -198 134
-211 3 -3 18 -25 34 -50 31 -49 150 -205 175 -231 9 -9 31 -35 49 -57 59 -73
174 -193 259 -272 102 -94 194 -175 210 -184 8 -4 23 -16 32 -25 36 -34 71
-61 80 -61 5 0 14 -7 21 -15 12 -15 195 -137 284 -191 27 -16 63 -38 80 -48
151 -92 608 -289 724 -312 13 -3 42 -11 65 -19 86 -28 334 -85 437 -99 61 -8
124 -17 155 -21 182 -27 660 -27 850 0 17 2 53 7 80 11 28 4 60 8 71 10 44 5
91 14 159 29 39 9 81 18 95 21 272 56 654 202 930 357 58 32 119 66 135 75 17
9 32 19 35 22 3 3 31 21 63 40 31 19 57 38 57 42 0 4 5 8 11 8 5 0 30 15 53
32 24 18 54 40 66 48 38 26 107 82 210 168 117 98 363 354 470 488 89 111 220
298 220 313 0 5 4 11 8 13 8 3 42 57 105 168 43 77 147 290 179 370 19 47 39
94 43 105 5 11 9 22 9 25 1 3 4 10 8 15 18 30 132 420 144 494 2 14 7 37 10
51 3 14 7 34 9 45 2 11 9 49 15 85 7 36 14 83 16 105 3 22 7 56 9 75 15 119
20 243 19 450 -1 266 -11 377 -55 630 -19 105 -37 186 -73 325 -13 50 -60 197
-72 222 -8 17 -14 36 -14 42 0 6 -7 27 -16 48 -9 21 -20 47 -25 58 -4 11 -20
49 -35 85 -28 69 -159 337 -173 355 -5 5 -21 33 -36 60 -16 28 -45 76 -67 108
-21 32 -38 63 -38 68 0 5 -3 9 -7 9 -5 0 -24 25 -43 55 -19 30 -38 55 -42 55
-5 0 -8 5 -8 10 0 11 -90 128 -178 230 -57 67 -304 315 -379 383 -23 20 -47
37 -52 37 -6 0 -14 6 -18 13 -4 7 -30 31 -58 52 -27 22 -51 43 -53 48 -2 4 -8
7 -14 7 -6 0 -29 15 -52 33 -168 135 -523 330 -791 435 -132 51 -166 64 -175
67 -3 0 -34 10 -70 22 -77 25 -295 84 -325 88 -11 1 -29 5 -40 8 -11 3 -33 8
-50 11 -16 3 -70 12 -120 20 -49 8 -117 18 -150 21 -33 3 -73 8 -90 11 -32 5
-561 14 -567 9z"/>
</g>
</svg>
